<svg id="Capa_1" enable-background="new 0 0 512 512" height="512" viewBox="0 0 512 512" width="512" xmlns="http://www.w3.org/2000/svg"><g><g><path clip-rule="evenodd" d="m243.832 215.38 58.667 16.271 118.868 32.967 32.132-115.344c16.506-59.245-18.58-121.211-77.957-137.681-59.405-16.47-121.482 18.511-138.016 77.784l-19.035 68.401c-.001 41.785 11.079 53.662 25.341 57.602z" fill="#eb5468" fill-rule="evenodd"/></g><g><path clip-rule="evenodd" d="m403.042 135.272-32.132 115.343 50.456 14.003 32.132-115.344c16.506-59.245-18.58-121.211-77.957-137.681-8.693-2.409-17.415-3.713-26.08-4.025 44.149 24.549 67.672 77.104 53.581 127.704z" fill="#e5384f" fill-rule="evenodd"/></g><g><path clip-rule="evenodd" d="m421.366 264.619-50.456-14.003-32.132 115.344c-8.608 30.927-29.632 55.248-56.224 69.081-2.5 6.095-5.455 11.821-8.864 17.207-1.904 3.033-3.949 5.953-6.137 8.759 54.064 6.605 106.68-27.213 121.68-81.044z" fill="#dddaec" fill-rule="evenodd"/></g><g><path clip-rule="evenodd" d="m149.226 127.788c-52.388 0-94.833 42.379-94.833 94.65 0 36.879 21.109 68.798 51.962 84.445 35.314 15.704 78.696 15.307 111.68-19.304 16.137-16.951 26.052-39.912 26.052-65.141 0-2.381-.085-4.734-.256-7.058-1.648-22.224-10.966-42.294-25.342-57.601-17.301-18.454-41.932-29.991-69.263-29.991z" fill="#ffd772" fill-rule="evenodd"/></g><g><path clip-rule="evenodd" d="m178.716 392.52 110.146 21.799c10.398-51.988-17.472-105.564-68.61-125.889-.739-.283-1.477-.567-2.216-.85-11.108-4.139-22.501-6.435-33.78-6.973-28.495-1.417-56.366 8.164-77.9 26.278-8.722 7.285-16.364 15.988-22.614 25.937z" fill="#b1e4f9" fill-rule="evenodd"/></g><g><path clip-rule="evenodd" d="m273.691 452.247-95.089-47.424-110.004-34.045c-10.341 51.932 17.529 105.479 68.61 125.775 13.58 5.386 27.615 7.965 41.393 7.965h.199c34.461-.028 67.474-16.016 88.753-43.513 2.189-2.805 4.234-5.725 6.138-8.758z" fill="#b1e4f9" fill-rule="evenodd"/></g><g><path clip-rule="evenodd" d="m172.608 130.708c21.734 23.188 49.632 107.747-4.688 150.295 5.398-.539 10.853-.68 16.336-.397 11.279.539 22.671 2.835 33.78 6.973 16.137-16.951 26.052-39.912 26.052-65.141 0-2.381-.085-4.734-.256-7.058-1.648-22.224-10.966-42.294-25.342-57.601-12.216-13.011-28.041-22.564-45.882-27.071z" fill="#fbba58" fill-rule="evenodd"/></g><g><path clip-rule="evenodd" d="m273.691 452.247-52.985-21.062c-1.08 3.6-2.244 7.087-3.551 10.545-9.631 25.739-25.228 47.509-44.632 62.618 2.017.113 4.063.17 6.08.17h.199c34.461-.028 67.474-16.016 88.753-43.513 2.187-2.805 4.232-5.725 6.136-8.758z" fill="#75cef8" fill-rule="evenodd"/></g><g><path clip-rule="evenodd" d="m227.723 390.026 61.139 24.293c10.398-51.988-17.472-105.564-68.61-125.889-.739-.283-1.477-.567-2.216-.85-7.188-2.693-14.489-4.592-21.791-5.726 3.779 4.989 7.273 10.29 10.455 15.903 13.41 23.613 21.251 52.3 21.251 83.227-.001 3.032-.057 6.037-.228 9.042z" fill="#75cef8" fill-rule="evenodd"/></g><g><path clip-rule="evenodd" d="m288.862 414.319-118.272-46.999-86.85-34.498c-3.58 5.669-6.705 11.764-9.29 18.227-2.585 6.52-4.517 13.096-5.852 19.729l126.084 50.089 79.008 31.38c3.608-5.698 6.733-11.821 9.318-18.312 2.587-6.463 4.518-13.04 5.854-19.616z" fill="#75cef8" fill-rule="evenodd"/></g><g><path clip-rule="evenodd" d="m220.706 431.185 52.985 21.062c3.608-5.698 6.733-11.821 9.318-18.312 2.585-6.463 4.517-13.04 5.852-19.616l-61.139-24.293c-.709 14.371-3.124 28.205-7.016 41.159z" fill="#60b7ff" fill-rule="evenodd"/></g><g><path d="m449.559 60.798c-15.747-27.873-41.315-47.912-71.996-56.426-.007-.002-.013-.003-.019-.005-63.508-17.607-129.565 19.623-147.245 83l-15.725 56.507c-17.741-14.721-40.526-23.587-65.348-23.587-24.462 0-48.151 8.766-66.704 24.684-3.144 2.697-3.505 7.432-.809 10.576 2.698 3.144 7.432 3.505 10.576.808 15.836-13.586 36.056-21.068 56.937-21.068 48.171 0 87.361 39.096 87.361 87.15 0 20.83-7.359 40.681-20.799 56.421-38.631-12.573-79.717-4.35-110.213 19.063-27.058-15.582-43.681-44.079-43.681-75.484 0-14.118 3.282-27.605 9.755-40.088 1.907-3.677.472-8.204-3.206-10.111s-8.204-.472-10.111 3.206c-7.59 14.638-11.439 30.449-11.439 46.994 0 35.114 17.714 67.132 46.862 85.858-11.065 11.092-20.111 24.538-26.27 39.974-11.822 29.642-11.382 62.107 1.236 91.413 12.64 29.354 35.979 52.027 65.719 63.84 14.482 5.752 29.43 8.477 44.144 8.477 35.414 0 69.443-15.794 92.236-43.123 3.399.294 6.8.447 10.197.447 23.319 0 46.375-6.876 66.157-19.914 24.088-15.877 41.591-39.826 49.286-67.436l12.16-43.682c1.11-3.99-1.224-8.126-5.214-9.236-3.988-1.111-8.126 1.223-9.237 5.214l-12.159 43.681c-12.598 45.21-54.632 76.26-100.797 76.351 3.344-5.529 6.291-11.392 8.762-17.584 11.83-29.624 11.405-62.07-1.195-91.362-11.571-26.899-32.14-48.19-58.392-60.674 13.156-17.032 20.557-37.693 21.157-59.378l160.582 44.537-8.496 30.497c-1.112 3.99 1.222 8.126 5.212 9.238.674.188 1.351.277 2.017.277 3.283 0 6.297-2.172 7.221-5.489l42.644-153.074c8.509-30.548 4.544-62.685-11.166-90.492zm-173.515 370.358c-1.628 4.079-3.488 7.997-5.555 11.749l-193.144-76.722c1.094-4.166 2.451-8.291 4.071-12.355 1.616-4.051 3.468-7.938 5.518-11.667l193.158 76.744c-1.09 4.13-2.439 8.22-4.048 12.251zm-136.066 58.427c-26.013-10.333-46.426-30.161-57.48-55.832-7.241-16.815-9.895-34.82-7.943-52.536l187.579 74.512c-27.76 36.425-77.507 51.591-122.156 33.856zm135.022-138.301c7.242 16.835 9.882 34.862 7.903 52.598l-187.639-74.551c19.879-26.136 51.068-41.347 83.59-41.347 12.873 0 25.958 2.385 38.628 7.418h-.001c26.043 10.353 46.471 30.199 57.519 55.882zm171.274-204.02-30.123 108.127-165.379-45.867c-2.583-20.343-11.188-38.838-23.967-53.649l17.943-64.479c15.46-55.418 73.252-87.969 128.784-72.572h.003c26.824 7.44 49.185 24.968 62.963 49.355 13.739 24.315 17.209 52.402 9.776 79.085z"/><path d="m173.431 220.698c4.142 0 7.5-3.358 7.5-7.5s-3.358-7.5-7.5-7.5h-.199c-4.142 0-7.5 3.358-7.5 7.5s3.358 7.5 7.5 7.5z"/><path d="m152.209 261.489h.199c4.142 0 7.5-3.358 7.5-7.5s-3.358-7.5-7.5-7.5h-.199c-4.142 0-7.5 3.358-7.5 7.5s3.358 7.5 7.5 7.5z"/><path d="m112.151 231.554c4.142 0 7.5-3.358 7.5-7.5s-3.358-7.5-7.5-7.5h-.228c-4.142 0-7.5 3.358-7.5 7.5s3.358 7.5 7.5 7.5z"/><path d="m139.623 167.826h-.199c-4.142 0-7.5 3.358-7.5 7.5s3.358 7.5 7.5 7.5h.199c4.142 0 7.5-3.358 7.5-7.5s-3.357-7.5-7.5-7.5z"/></g></g></svg>